<svg id="visual" viewBox="0 0 1920 1000" width="1920" height="1000" xmlns="http://www.w3.org/2000/svg" xmlns:xlink="http://www.w3.org/1999/xlink" version="1.1"><g transform="translate(937.8858482432568 510.61191118020184)"><path d="M318 -445C410.8 -435.3 483.8 -344.8 527.1 -242.8C570.4 -140.8 584.1 -27.4 544.3 60.8C504.4 149 410.9 212 335.1 278.9C259.3 345.8 201.2 416.6 132.7 424C64.1 431.5 -14.8 375.5 -96.9 344.7C-178.9 313.9 -264 308.2 -344.1 268.7C-424.1 229.2 -499.1 155.9 -518.4 70.1C-537.7 -15.7 -501.2 -114 -457.7 -208.9C-414.2 -303.9 -363.6 -395.5 -286.2 -412.2C-208.7 -428.9 -104.3 -370.7 4.1 -377.2C112.6 -383.6 225.3 -454.7 318 -445" fill="#0CB7E5"></path></g></svg>